<svg width="36" height="36" viewBox="0 0 36 36" fill="none" xmlns="http://www.w3.org/2000/svg">
<path d="M18 36C27.9411 36 36 27.9411 36 18C36 8.05887 27.9411 0 18 0C8.05887 0 0 8.05887 0 18C0 27.9411 8.05887 36 18 36Z" fill="#0060AF"/>
<path d="M12.5382 7.73047C11.2949 7.73047 10.2856 8.7422 10.2856 9.98549V23.5056C10.2856 24.7489 11.2949 25.7581 12.5382 25.7581H18.3465C18.3555 25.7581 18.3613 25.7493 18.3716 25.7481C19.0144 27.2305 20.4885 28.2718 22.2036 28.2718C24.5076 28.2718 26.3822 26.3972 26.3822 24.0932C26.3822 22.3498 25.3066 20.8572 23.7856 20.231V13.2224C23.7856 13.2121 23.7743 13.2038 23.773 13.1923C23.7718 13.1087 23.7531 13.0267 23.6927 12.9663L18.5499 7.82338C18.483 7.75781 18.3913 7.74039 18.3013 7.74553C18.2884 7.74425 18.279 7.73047 18.2661 7.73047H12.5382H12.5382ZM12.5382 8.37333H17.9999V11.2812C17.9999 12.5142 19.0031 13.5162 20.2349 13.5162H23.1428V20.0301C22.8394 19.9594 22.5276 19.9146 22.2036 19.9146C19.8996 19.9146 18.025 21.7892 18.025 24.0932C18.025 24.4481 18.0821 24.7861 18.1657 25.1152H12.5382C11.651 25.1152 10.9285 24.3902 10.9285 23.5031V9.98549C10.9285 9.09706 11.651 8.37333 12.5382 8.37333ZM18.6428 8.87807C19.6251 9.85393 21.5845 11.8023 22.6606 12.8733H20.2349C19.3567 12.8733 18.6428 12.1594 18.6428 11.2812V8.87807ZM22.2036 20.5575C24.154 20.5575 25.7393 22.1428 25.7393 24.0932C25.7393 26.0436 24.154 27.6289 22.2036 27.6289C20.2532 27.6289 18.6679 26.0436 18.6679 24.0932C18.6679 22.1428 20.2532 20.5575 22.2036 20.5575ZM22.181 22.3354L20.4558 23.9978L20.9028 24.4598L21.8546 23.5432V26.0469H22.4974V23.5156L23.5044 24.4648L23.9438 23.9927L22.181 22.3354Z" fill="white"/>
</svg>
